<svg id="pig-svg" width="300" height="300" viewBox="0 0 300 300" xmlns="http://www.w3.org/2000/svg">
  <!-- 透明背景 -->
  <rect width="100%" height="100%" fill="transparent" />
  
  <!-- 小猪身体阴影增加立体感 -->
  <ellipse cx="155" cy="175" rx="70" ry="50" fill="#eaa7b4" />
  <!-- 小猪身体 -->
  <ellipse cx="150" cy="170" rx="70" ry="50" fill="#ffb6c1" />
  
  <!-- 小猪头部阴影增加立体感 -->
  <circle cx="155" cy="105" r="50" fill="#eaa7b4" />
  <!-- 小猪头部 -->
  <circle cx="150" cy="100" r="50" fill="#ffb6c1" />
  
  <!-- 左耳朵阴影 -->
  <ellipse cx="130" cy="75" rx="12" ry="20" fill="#eaa7b4" transform="rotate(-20 125 70)" />
  <!-- 左耳朵 -->
  <ellipse cx="125" cy="70" rx="12" ry="20" fill="#ffb6c1" transform="rotate(-20 125 70)" />
  <ellipse cx="125" cy="70" rx="6" ry="10" fill="#ff99a4" transform="rotate(-20 125 70)" />
  
  <!-- 右耳朵阴影 -->
  <ellipse cx="180" cy="75" rx="12" ry="20" fill="#eaa7b4" transform="rotate(20 175 70)" />
  <!-- 右耳朵 -->
  <ellipse cx="175" cy="70" rx="12" ry="20" fill="#ffb6c1" transform="rotate(20 175 70)" />
  <ellipse cx="175" cy="70" rx="6" ry="10" fill="#ff99a4" transform="rotate(20 175 70)" />
  
  <!-- 左眼睛外圈 -->
  <circle cx="135" cy="95" r="8" fill="#fff" />
  <!-- 左眼珠容器 -->
  <g id="left-eye">
    <!-- 左眼珠 -->
    <circle cx="135" cy="95" r="5" fill="#333" />
    <!-- 左眼珠高光 -->
    <circle cx="137" cy="93" r="2" fill="#fff" />
  </g>
  
  <!-- 右眼睛外圈 -->
  <circle cx="165" cy="95" r="8" fill="#fff" />
  <!-- 右眼珠容器 -->
  <g id="right-eye">
    <!-- 右眼珠 -->
    <circle cx="165" cy="95" r="5" fill="#333" />
    <!-- 右眼珠高光 -->
    <circle cx="167" cy="93" r="2" fill="#fff" />
  </g>
  
  <!-- 鼻子阴影 -->
  <ellipse cx="151" cy="112" rx="15" ry="10" fill="#ee8894" />
  <!-- 鼻子 -->
  <ellipse cx="150" cy="110" rx="15" ry="10" fill="#ff99a4" />
  
  <!-- 鼻孔 -->
  <circle cx="145" cy="110" r="2" fill="#333" />
  <circle cx="155" cy="110" r="2" fill="#333" />
  
  <!-- 嘴巴 -->
  <path d="M 140 120 Q 150 130 160 120" stroke="#333" stroke-width="2" fill="none" />
  
  <!-- 左前腿阴影 -->
  <ellipse cx="125" cy="215" rx="15" ry="25" fill="#eaa7b4" />
  <!-- 左前腿 -->
  <ellipse cx="120" cy="210" rx="15" ry="25" fill="#ffb6c1" />
  
  <!-- 右前腿阴影 -->
  <ellipse cx="185" cy="215" rx="15" ry="25" fill="#eaa7b4" />
  <!-- 右前腿 -->
  <ellipse cx="180" cy="210" rx="15" ry="25" fill="#ffb6c1" />
  
  <!-- 左后腿阴影 -->
  <ellipse cx="115" cy="185" rx="12" ry="20" fill="#eaa7b4" />
  <!-- 左后腿 -->
  <ellipse cx="110" cy="180" rx="12" ry="20" fill="#ffb6c1" />
  
  <!-- 右后腿阴影 -->
  <ellipse cx="195" cy="185" rx="12" ry="20" fill="#eaa7b4" />
  <!-- 右后腿 -->
  <ellipse cx="190" cy="180" rx="12" ry="20" fill="#ffb6c1" />
  
  <!-- 尾巴 -->
  <path d="M 220 170 Q 240 160 230 150 Q 220 140 230 130" stroke="#ffb6c1" stroke-width="5" fill="none" stroke-linecap="round" />
  
  <!-- 身体高光增加立体感 -->
  <ellipse cx="140" cy="160" rx="20" ry="15" fill="#ffc3ce" />
  
  <style>
    #left-eye, #right-eye {
      transition: transform 0.1s ease-out;
    }
  </style>
  
  <!-- 修复脚本：使用CDATA包裹，避免XML解析问题；调整获取元素的时机 -->
  <script type="text/javascript"><![CDATA[
    // 等待SVG加载完成后执行
    document.addEventListener('DOMContentLoaded', function() {
      const svg = document.getElementById('pig-svg');
      if (!svg) return; // 确保SVG元素存在
      
      const leftEye = document.getElementById('left-eye');
      const rightEye = document.getElementById('right-eye');
      if (!leftEye || !rightEye) return; // 确保眼睛元素存在
      
      // 计算SVG在页面中的位置（考虑滚动）
      function getSvgPosition() {
        const rect = svg.getBoundingClientRect();
        return {
          x: rect.left + window.scrollX,
          y: rect.top + window.scrollY,
          width: rect.width,
          height: rect.height
        };
      }
      
      // 鼠标移动事件
      svg.addEventListener('mousemove', function(e) {
        const pos = getSvgPosition();
        // 计算鼠标在SVG内部的相对坐标（0~300范围，对应viewBox）
        const mouseX = (e.clientX - pos.x) * (300 / pos.width);
        const mouseY = (e.clientY - pos.y) * (300 / pos.height);
        
        // 左眼跟踪逻辑
        const leftEyeBaseX = 135;
        const leftEyeBaseY = 95;
        const leftDeltaX = mouseX - leftEyeBaseX;
        const leftDeltaY = mouseY - leftEyeBaseY;
        const leftDistance = Math.sqrt(leftDeltaX * leftDeltaX + leftDeltaY * leftDeltaY);
        const leftMaxMove = 3; // 最大移动距离
        const leftMoveRatio = Math.min(leftMaxMove / leftDistance, 1);
        const leftNewX = leftDeltaX * leftMoveRatio;
        const leftNewY = leftDeltaY * leftMoveRatio;
        
        // 右眼跟踪逻辑
        const rightEyeBaseX = 165;
        const rightEyeBaseY = 95;
        const rightDeltaX = mouseX - rightEyeBaseX;
        const rightDeltaY = mouseY - rightEyeBaseY;
        const rightDistance = Math.sqrt(rightDeltaX * rightDeltaX + rightDeltaY * rightDeltaY);
        const rightMaxMove = 3; // 最大移动距离
        const rightMoveRatio = Math.min(rightMaxMove / rightDistance, 1);
        const rightNewX = rightDeltaX * rightMoveRatio;
        const rightNewY = rightDeltaY * rightMoveRatio;
        
        // 应用变换
        leftEye.setAttribute('transform', `translate(${leftNewX}, ${leftNewY})`);
        rightEye.setAttribute('transform', `translate(${rightNewX}, ${rightNewY})`);
      });
      
      // 鼠标离开时重置
      svg.addEventListener('mouseleave', function() {
        leftEye.setAttribute('transform', 'translate(0, 0)');
        rightEye.setAttribute('transform', 'translate(0, 0)');
      });
    });
  ]]></script>
</svg>